<svg width="190" height="33" viewBox="0 0 190 33" fill="none" xmlns="http://www.w3.org/2000/svg">
<path d="M44.8311 6.10449H51.9844C53.4004 6.10449 54.4543 6.16553 55.146 6.2876C55.8459 6.40153 56.4684 6.64567 57.0137 7.02002C57.5671 7.39437 58.0269 7.89486 58.3931 8.52148C58.7593 9.13997 58.9424 9.83577 58.9424 10.6089C58.9424 11.4471 58.7145 12.2161 58.2588 12.916C57.8112 13.6159 57.2008 14.1408 56.4277 14.4907C57.5182 14.8081 58.3564 15.3493 58.9424 16.1143C59.5283 16.8792 59.8213 17.7785 59.8213 18.812C59.8213 19.6258 59.63 20.4193 59.2476 21.1924C58.8732 21.9574 58.3564 22.5718 57.6973 23.0356C57.0462 23.4914 56.2406 23.7721 55.2803 23.8779C54.6781 23.943 53.2254 23.9837 50.9224 24H44.8311V6.10449ZM48.4443 9.08301V13.2212H50.8125C52.2204 13.2212 53.0952 13.2008 53.437 13.1602C54.0555 13.0869 54.5397 12.8753 54.8896 12.5254C55.2477 12.1673 55.4268 11.6994 55.4268 11.1216C55.4268 10.5682 55.2721 10.1206 54.9629 9.77881C54.6618 9.42887 54.2101 9.21729 53.6079 9.14404C53.2498 9.10335 52.2204 9.08301 50.5195 9.08301H48.4443ZM48.4443 16.1997V20.9849H51.7891C53.0911 20.9849 53.9172 20.9482 54.2671 20.875C54.8042 20.7773 55.2396 20.5413 55.5732 20.167C55.915 19.7845 56.0859 19.2759 56.0859 18.6411C56.0859 18.104 55.9557 17.6483 55.6953 17.2739C55.4349 16.8996 55.0565 16.627 54.5601 16.4561C54.0718 16.2852 53.0057 16.1997 51.3618 16.1997H48.4443ZM65.4243 14.9912L62.3115 14.4297C62.6615 13.1764 63.2637 12.2487 64.1182 11.6465C64.9727 11.0443 66.2422 10.7432 67.9268 10.7432C69.4567 10.7432 70.596 10.9263 71.3447 11.2925C72.0934 11.6506 72.6183 12.1104 72.9194 12.6719C73.2287 13.2253 73.3833 14.2466 73.3833 15.7358L73.3467 19.7397C73.3467 20.8791 73.3996 21.7214 73.5054 22.2666C73.6193 22.8037 73.8268 23.3815 74.1279 24H70.7344C70.6449 23.7721 70.535 23.4344 70.4048 22.9868C70.3478 22.7834 70.3071 22.6491 70.2827 22.584C69.6968 23.1536 69.0701 23.5809 68.4028 23.8657C67.7355 24.1506 67.0234 24.293 66.2666 24.293C64.932 24.293 63.8781 23.9308 63.105 23.2065C62.34 22.4823 61.9575 21.5667 61.9575 20.46C61.9575 19.7275 62.1325 19.0765 62.4824 18.5068C62.8324 17.929 63.3206 17.4896 63.9473 17.1885C64.582 16.8792 65.4935 16.6107 66.6816 16.3828C68.2848 16.0817 69.3957 15.8009 70.0142 15.5405V15.1987C70.0142 14.5396 69.8514 14.0716 69.5259 13.7949C69.2004 13.5101 68.5859 13.3677 67.6826 13.3677C67.0723 13.3677 66.5962 13.4897 66.2544 13.7339C65.9126 13.9699 65.6359 14.389 65.4243 14.9912ZM70.0142 17.7744C69.5747 17.9209 68.8789 18.0959 67.9268 18.2993C66.9746 18.5028 66.3521 18.7021 66.0591 18.8975C65.6115 19.2148 65.3877 19.6177 65.3877 20.106C65.3877 20.5861 65.5667 21.0011 65.9248 21.3511C66.2829 21.701 66.7386 21.876 67.292 21.876C67.9105 21.876 68.5005 21.6725 69.062 21.2656C69.4771 20.9564 69.7497 20.578 69.8799 20.1304C69.9694 19.8374 70.0142 19.2799 70.0142 18.458V17.7744ZM88.5688 24H85.1387V17.3838C85.1387 15.984 85.0654 15.0807 84.9189 14.6738C84.7725 14.2588 84.5324 13.9373 84.1987 13.7095C83.8732 13.4816 83.4785 13.3677 83.0146 13.3677C82.4206 13.3677 81.8875 13.5304 81.4155 13.856C80.9435 14.1815 80.618 14.6128 80.439 15.1499C80.2681 15.687 80.1826 16.6799 80.1826 18.1284V24H76.7524V11.0361H79.9385V12.9404C81.0697 11.4756 82.4938 10.7432 84.2109 10.7432C84.9678 10.7432 85.6595 10.8815 86.2861 11.1582C86.9128 11.4268 87.3848 11.7726 87.7021 12.1958C88.0277 12.619 88.2515 13.0991 88.3735 13.6362C88.5037 14.1733 88.5688 14.9424 88.5688 15.9434V24ZM103.364 14.8691L99.9824 15.4795C99.8685 14.804 99.6081 14.2954 99.2012 13.9536C98.8024 13.6118 98.2816 13.4409 97.6387 13.4409C96.7842 13.4409 96.1006 13.738 95.5879 14.332C95.0833 14.918 94.8311 15.9027 94.8311 17.2861C94.8311 18.8242 95.0874 19.9106 95.6001 20.5454C96.1209 21.1802 96.8167 21.4976 97.6875 21.4976C98.3385 21.4976 98.8716 21.3145 99.2866 20.9482C99.7017 20.5739 99.9946 19.9351 100.166 19.0317L103.535 19.6055C103.185 21.1517 102.513 22.3195 101.521 23.1089C100.528 23.8983 99.1971 24.293 97.5288 24.293C95.6326 24.293 94.119 23.6948 92.9878 22.4985C91.8647 21.3022 91.3032 19.6462 91.3032 17.5303C91.3032 15.39 91.8688 13.7257 93 12.5376C94.1312 11.3413 95.6611 10.7432 97.5898 10.7432C99.1686 10.7432 100.422 11.085 101.35 11.7686C102.285 12.444 102.957 13.4775 103.364 14.8691ZM105.183 17.335C105.183 16.1956 105.463 15.0929 106.025 14.0269C106.586 12.9608 107.38 12.147 108.405 11.5854C109.439 11.0239 110.59 10.7432 111.86 10.7432C113.821 10.7432 115.428 11.382 116.682 12.6597C117.935 13.9292 118.562 15.5365 118.562 17.4814C118.562 19.4427 117.927 21.0703 116.657 22.3643C115.396 23.6501 113.805 24.293 111.884 24.293C110.696 24.293 109.561 24.0244 108.479 23.4873C107.404 22.9502 106.586 22.1649 106.025 21.1313C105.463 20.0897 105.183 18.8242 105.183 17.335ZM108.698 17.5181C108.698 18.8039 109.003 19.7886 109.614 20.4722C110.224 21.1558 110.977 21.4976 111.872 21.4976C112.767 21.4976 113.516 21.1558 114.118 20.4722C114.729 19.7886 115.034 18.7957 115.034 17.4937C115.034 16.2241 114.729 15.2476 114.118 14.564C113.516 13.8804 112.767 13.5386 111.872 13.5386C110.977 13.5386 110.224 13.8804 109.614 14.564C109.003 15.2476 108.698 16.2323 108.698 17.5181ZM128.217 6.10449H131.831V15.7969C131.831 17.335 131.875 18.3319 131.965 18.7876C132.119 19.52 132.486 20.11 133.063 20.5576C133.649 20.9971 134.447 21.2168 135.456 21.2168C136.481 21.2168 137.255 21.0093 137.775 20.5942C138.296 20.1711 138.61 19.6543 138.715 19.0439C138.821 18.4336 138.874 17.4204 138.874 16.0044V6.10449H142.487V15.5039C142.487 17.6523 142.39 19.1701 142.194 20.0571C141.999 20.9442 141.637 21.6929 141.108 22.3032C140.587 22.9136 139.887 23.4019 139.008 23.7681C138.129 24.1261 136.982 24.3052 135.566 24.3052C133.857 24.3052 132.559 24.1099 131.672 23.7192C130.793 23.3205 130.097 22.8078 129.584 22.1812C129.072 21.5464 128.734 20.8831 128.571 20.1914C128.335 19.166 128.217 17.6523 128.217 15.6504V6.10449ZM148.847 14.9912L145.734 14.4297C146.084 13.1764 146.687 12.2487 147.541 11.6465C148.396 11.0443 149.665 10.7432 151.35 10.7432C152.88 10.7432 154.019 10.9263 154.768 11.2925C155.516 11.6506 156.041 12.1104 156.342 12.6719C156.652 13.2253 156.806 14.2466 156.806 15.7358L156.77 19.7397C156.77 20.8791 156.822 21.7214 156.928 22.2666C157.042 22.8037 157.25 23.3815 157.551 24H154.157C154.068 23.7721 153.958 23.4344 153.828 22.9868C153.771 22.7834 153.73 22.6491 153.706 22.584C153.12 23.1536 152.493 23.5809 151.826 23.8657C151.158 24.1506 150.446 24.293 149.689 24.293C148.355 24.293 147.301 23.9308 146.528 23.2065C145.763 22.4823 145.38 21.5667 145.38 20.46C145.38 19.7275 145.555 19.0765 145.905 18.5068C146.255 17.929 146.743 17.4896 147.37 17.1885C148.005 16.8792 148.916 16.6107 150.104 16.3828C151.708 16.0817 152.819 15.8009 153.437 15.5405V15.1987C153.437 14.5396 153.274 14.0716 152.949 13.7949C152.623 13.5101 152.009 13.3677 151.105 13.3677C150.495 13.3677 150.019 13.4897 149.677 13.7339C149.335 13.9699 149.059 14.389 148.847 14.9912ZM153.437 17.7744C152.998 17.9209 152.302 18.0959 151.35 18.2993C150.397 18.5028 149.775 18.7021 149.482 18.8975C149.034 19.2148 148.811 19.6177 148.811 20.106C148.811 20.5861 148.99 21.0011 149.348 21.3511C149.706 21.701 150.161 21.876 150.715 21.876C151.333 21.876 151.923 21.6725 152.485 21.2656C152.9 20.9564 153.173 20.578 153.303 20.1304C153.392 19.8374 153.437 19.2799 153.437 18.458V17.7744ZM166.145 11.0361V13.7705H163.801V18.9951C163.801 20.0531 163.821 20.6715 163.862 20.8506C163.911 21.0215 164.012 21.1639 164.167 21.2778C164.33 21.3918 164.525 21.4487 164.753 21.4487C165.07 21.4487 165.53 21.3389 166.132 21.1191L166.425 23.7803C165.628 24.1221 164.724 24.293 163.715 24.293C163.097 24.293 162.539 24.1912 162.043 23.9878C161.547 23.7762 161.18 23.5076 160.944 23.1821C160.716 22.8485 160.558 22.4009 160.468 21.8394C160.395 21.4406 160.358 20.6349 160.358 19.4224V13.7705H158.784V11.0361H160.358V8.46045L163.801 6.4585V11.0361H166.145ZM168.525 9.27832V6.10449H171.955V9.27832H168.525ZM168.525 24V11.0361H171.955V24H168.525Z" fill="#FF8700"/>
<path d="M31.1111 11.7061H29.4721C28.9832 10.6609 28.2721 9.73591 27.3943 8.96247L28.4443 5.01689H26.6665C25.0331 5.01689 23.5886 5.72239 22.6107 6.80939C22.1885 6.7519 21.7718 6.68919 21.3329 6.68919H14.2215C9.92136 6.68919 6.33788 9.56345 5.51007 13.3784H3.10998C2.28773 13.3784 1.6377 12.6729 1.80437 11.8733C1.9266 11.2776 2.52107 10.8699 3.16554 10.8699H3.2211C3.40444 10.8699 3.55444 10.7288 3.55444 10.5564V9.51119C3.55444 9.33873 3.40444 9.19763 3.2211 9.19763C1.6377 9.19763 0.226534 10.2637 0.0265264 11.7374C-0.217928 13.5247 1.25991 15.0507 3.10998 15.0507H5.33229C5.33229 17.7786 6.74346 20.1773 8.88798 21.7033V25.9206C8.88798 26.3805 9.288 26.7568 9.77691 26.7568H13.3326C13.8215 26.7568 14.2215 26.3805 14.2215 25.9206V23.4122H21.3329V25.9206C21.3329 26.3805 21.7329 26.7568 22.2218 26.7568H25.7775C26.2664 26.7568 26.6665 26.3805 26.6665 25.9206V21.7033C27.322 21.2382 27.9054 20.6895 28.4054 20.0676H31.1111C31.6 20.0676 32 19.6913 32 19.2314V12.5422C32 12.0823 31.6 11.7061 31.1111 11.7061ZM23.9997 15.0507C23.5108 15.0507 23.1108 14.6744 23.1108 14.2145C23.1108 13.7546 23.5108 13.3784 23.9997 13.3784C24.4886 13.3784 24.8886 13.7546 24.8886 14.2145C24.8886 14.6744 24.4886 15.0507 23.9997 15.0507ZM14.2215 5.01689H21.3329C21.6329 5.01689 21.9274 5.0378 22.2163 5.0587C22.2163 5.04302 22.2218 5.03257 22.2218 5.01689C22.2218 2.24715 19.8329 0 16.8883 0C13.9437 0 11.5548 2.24715 11.5548 5.01689C11.5548 5.12664 11.5825 5.23115 11.5881 5.3409C12.4326 5.13709 13.3104 5.01689 14.2215 5.01689Z" fill="#FF8700"/>
</svg>

