<svg width="315" height="78" viewBox="0 0 315 78" fill="none" xmlns="http://www.w3.org/2000/svg">
<path d="M62.2197 25.375H58.9419C57.9642 23.1094 56.5419 21.1043 54.7864 19.4277L56.8864 10.875H53.3308C50.0642 10.875 47.1753 12.4043 45.2197 14.7605C44.3753 14.6359 43.5419 14.5 42.6642 14.5H28.4419C19.8419 14.5 12.6753 20.7305 11.0197 29H6.21972C4.57527 29 3.27527 27.4707 3.60861 25.7375C3.85305 24.4461 5.04194 23.5625 6.33083 23.5625H6.44194C6.80861 23.5625 7.10861 23.2566 7.10861 22.8828V20.6172C7.10861 20.2434 6.80861 19.9375 6.44194 19.9375C3.27527 19.9375 0.453051 22.2484 0.0530507 25.443C-0.435838 29.3172 2.51972 32.625 6.21972 32.625H10.6642C10.6642 38.5383 13.4864 43.7379 17.7753 47.0457V56.1875C17.7753 57.1844 18.5753 58 19.5531 58H26.6642C27.6419 58 28.4419 57.1844 28.4419 56.1875V50.75H42.6642V56.1875C42.6642 57.1844 43.4642 58 44.4419 58H51.5531C52.5308 58 53.3308 57.1844 53.3308 56.1875V47.0457C54.6419 46.0375 55.8086 44.848 56.8086 43.5H62.2197C63.1975 43.5 63.9975 42.6844 63.9975 41.6875V27.1875C63.9975 26.1906 63.1975 25.375 62.2197 25.375ZM47.9975 32.625C47.0197 32.625 46.2197 31.8094 46.2197 30.8125C46.2197 29.8156 47.0197 29 47.9975 29C48.9753 29 49.7753 29.8156 49.7753 30.8125C49.7753 31.8094 48.9753 32.625 47.9975 32.625ZM28.4419 10.875H42.6642C43.2642 10.875 43.8531 10.9203 44.4308 10.9656C44.4308 10.9316 44.4419 10.909 44.4419 10.875C44.4419 4.87109 39.6642 0 33.7753 0C27.8864 0 23.1086 4.87109 23.1086 10.875C23.1086 11.1129 23.1642 11.3395 23.1753 11.5773C24.8642 11.1355 26.6197 10.875 28.4419 10.875Z" fill="#FF8700"/>
<path d="M96.926 19.3672H108.371C110.637 19.3672 112.323 19.4648 113.43 19.6602C114.55 19.8424 115.546 20.2331 116.418 20.832C117.304 21.431 118.039 22.2318 118.625 23.2344C119.211 24.224 119.504 25.3372 119.504 26.5742C119.504 27.9154 119.14 29.1458 118.41 30.2656C117.694 31.3854 116.718 32.2253 115.481 32.7852C117.225 33.293 118.567 34.1589 119.504 35.3828C120.442 36.6068 120.91 38.0456 120.91 39.6992C120.91 41.0013 120.604 42.2708 119.992 43.5078C119.393 44.7318 118.567 45.7148 117.512 46.457C116.47 47.1862 115.181 47.6354 113.645 47.8047C112.681 47.9089 110.357 47.974 106.672 48H96.926V19.3672ZM102.707 24.1328V30.7539H106.496C108.749 30.7539 110.149 30.7214 110.695 30.6562C111.685 30.5391 112.46 30.2005 113.02 29.6406C113.593 29.0677 113.879 28.319 113.879 27.3945C113.879 26.5091 113.632 25.793 113.137 25.2461C112.655 24.6862 111.932 24.3477 110.969 24.2305C110.396 24.1654 108.749 24.1328 106.028 24.1328H102.707ZM102.707 35.5195V43.1758H108.059C110.142 43.1758 111.464 43.1172 112.024 43C112.883 42.8438 113.58 42.4661 114.113 41.8672C114.66 41.2552 114.934 40.4414 114.934 39.4258C114.934 38.5664 114.725 37.8372 114.309 37.2383C113.892 36.6393 113.287 36.2031 112.492 35.9297C111.711 35.6562 110.005 35.5195 107.375 35.5195H102.707ZM129.875 33.5859L124.895 32.6875C125.455 30.6823 126.418 29.1979 127.785 28.2344C129.153 27.2708 131.184 26.7891 133.879 26.7891C136.327 26.7891 138.15 27.082 139.348 27.668C140.546 28.2409 141.386 28.9766 141.867 29.875C142.362 30.7604 142.61 32.3945 142.61 34.7773L142.551 41.1836C142.551 43.0065 142.636 44.3542 142.805 45.2266C142.987 46.0859 143.319 47.0104 143.801 48H138.371C138.228 47.6354 138.052 47.0951 137.844 46.3789C137.753 46.0534 137.688 45.8385 137.649 45.7344C136.711 46.6458 135.709 47.3294 134.641 47.7852C133.573 48.2409 132.434 48.4688 131.223 48.4688C129.087 48.4688 127.401 47.8893 126.164 46.7305C124.94 45.5716 124.328 44.1068 124.328 42.3359C124.328 41.1641 124.608 40.1224 125.168 39.2109C125.728 38.2865 126.509 37.5833 127.512 37.1016C128.528 36.6068 129.986 36.1771 131.887 35.8125C134.452 35.3307 136.229 34.8815 137.219 34.4648V33.918C137.219 32.8633 136.959 32.1146 136.438 31.6719C135.917 31.2161 134.934 30.9883 133.488 30.9883C132.512 30.9883 131.75 31.1836 131.203 31.5742C130.656 31.9518 130.214 32.6224 129.875 33.5859ZM137.219 38.0391C136.516 38.2734 135.403 38.5534 133.879 38.8789C132.356 39.2044 131.36 39.5234 130.891 39.8359C130.175 40.3438 129.817 40.9883 129.817 41.7695C129.817 42.5378 130.103 43.2018 130.676 43.7617C131.249 44.3216 131.978 44.6016 132.863 44.6016C133.853 44.6016 134.797 44.276 135.695 43.625C136.36 43.1302 136.796 42.5247 137.004 41.8086C137.147 41.3398 137.219 40.4479 137.219 39.1328V38.0391ZM166.906 48H161.418V37.4141C161.418 35.1745 161.301 33.7292 161.067 33.0781C160.832 32.4141 160.448 31.8997 159.914 31.5352C159.393 31.1706 158.762 30.9883 158.02 30.9883C157.069 30.9883 156.216 31.2487 155.461 31.7695C154.706 32.2904 154.185 32.9805 153.899 33.8398C153.625 34.6992 153.488 36.2878 153.488 38.6055V48H148V27.2578H153.098V30.3047C154.908 27.9609 157.186 26.7891 159.934 26.7891C161.145 26.7891 162.251 27.0104 163.254 27.4531C164.257 27.8828 165.012 28.4362 165.52 29.1133C166.041 29.7904 166.399 30.5586 166.594 31.418C166.802 32.2773 166.906 33.5078 166.906 35.1094V48ZM190.578 33.3906L185.168 34.3672C184.986 33.2865 184.569 32.4727 183.918 31.9258C183.28 31.3789 182.447 31.1055 181.418 31.1055C180.051 31.1055 178.957 31.5807 178.137 32.5312C177.33 33.4688 176.926 35.0443 176.926 37.2578C176.926 39.7188 177.336 41.457 178.156 42.4727C178.99 43.4883 180.103 43.9961 181.496 43.9961C182.538 43.9961 183.391 43.7031 184.055 43.1172C184.719 42.5182 185.188 41.4961 185.461 40.0508L190.852 40.9688C190.292 43.4427 189.218 45.3112 187.629 46.5742C186.041 47.8372 183.912 48.4688 181.242 48.4688C178.209 48.4688 175.787 47.5117 173.977 45.5977C172.18 43.6836 171.281 41.0339 171.281 37.6484C171.281 34.224 172.186 31.5612 173.996 29.6602C175.806 27.7461 178.254 26.7891 181.34 26.7891C183.866 26.7891 185.871 27.3359 187.356 28.4297C188.853 29.5104 189.927 31.1641 190.578 33.3906ZM193.488 37.3359C193.488 35.513 193.938 33.7487 194.836 32.043C195.735 30.3372 197.004 29.0352 198.645 28.1367C200.298 27.2383 202.141 26.7891 204.172 26.7891C207.31 26.7891 209.882 27.8112 211.887 29.8555C213.892 31.8867 214.895 34.4583 214.895 37.5703C214.895 40.7083 213.879 43.3125 211.848 45.3828C209.83 47.4401 207.284 48.4688 204.211 48.4688C202.31 48.4688 200.494 48.0391 198.762 47.1797C197.043 46.3203 195.735 45.0638 194.836 43.4102C193.938 41.7435 193.488 39.7188 193.488 37.3359ZM199.113 37.6289C199.113 39.6862 199.602 41.2617 200.578 42.3555C201.555 43.4492 202.759 43.9961 204.192 43.9961C205.624 43.9961 206.822 43.4492 207.785 42.3555C208.762 41.2617 209.25 39.6732 209.25 37.5898C209.25 35.5586 208.762 33.9961 207.785 32.9023C206.822 31.8086 205.624 31.2617 204.192 31.2617C202.759 31.2617 201.555 31.8086 200.578 32.9023C199.602 33.9961 199.113 35.5716 199.113 37.6289ZM230.344 19.3672H236.125V34.875C236.125 37.3359 236.197 38.931 236.34 39.6602C236.587 40.832 237.173 41.776 238.098 42.4922C239.035 43.1953 240.311 43.5469 241.926 43.5469C243.567 43.5469 244.804 43.2148 245.637 42.5508C246.47 41.8737 246.972 41.0469 247.141 40.0703C247.31 39.0938 247.395 37.4727 247.395 35.207V19.3672H253.176V34.4062C253.176 37.8438 253.02 40.2721 252.707 41.6914C252.395 43.1107 251.815 44.3086 250.969 45.2852C250.136 46.2617 249.016 47.043 247.61 47.6289C246.203 48.2018 244.367 48.4883 242.102 48.4883C239.367 48.4883 237.291 48.1758 235.871 47.5508C234.465 46.9128 233.352 46.0924 232.531 45.0898C231.711 44.0742 231.171 43.013 230.91 41.9062C230.533 40.2656 230.344 37.8438 230.344 34.6406V19.3672ZM263.352 33.5859L258.371 32.6875C258.931 30.6823 259.895 29.1979 261.262 28.2344C262.629 27.2708 264.66 26.7891 267.356 26.7891C269.804 26.7891 271.626 27.082 272.824 27.668C274.022 28.2409 274.862 28.9766 275.344 29.875C275.839 30.7604 276.086 32.3945 276.086 34.7773L276.028 41.1836C276.028 43.0065 276.112 44.3542 276.281 45.2266C276.464 46.0859 276.796 47.0104 277.278 48H271.848C271.705 47.6354 271.529 47.0951 271.32 46.3789C271.229 46.0534 271.164 45.8385 271.125 45.7344C270.188 46.6458 269.185 47.3294 268.117 47.7852C267.05 48.2409 265.91 48.4688 264.699 48.4688C262.564 48.4688 260.878 47.8893 259.641 46.7305C258.417 45.5716 257.805 44.1068 257.805 42.3359C257.805 41.1641 258.085 40.1224 258.645 39.2109C259.205 38.2865 259.986 37.5833 260.988 37.1016C262.004 36.6068 263.462 36.1771 265.363 35.8125C267.929 35.3307 269.706 34.8815 270.695 34.4648V33.918C270.695 32.8633 270.435 32.1146 269.914 31.6719C269.393 31.2161 268.41 30.9883 266.965 30.9883C265.988 30.9883 265.227 31.1836 264.68 31.5742C264.133 31.9518 263.69 32.6224 263.352 33.5859ZM270.695 38.0391C269.992 38.2734 268.879 38.5534 267.356 38.8789C265.832 39.2044 264.836 39.5234 264.367 39.8359C263.651 40.3438 263.293 40.9883 263.293 41.7695C263.293 42.5378 263.58 43.2018 264.153 43.7617C264.725 44.3216 265.455 44.6016 266.34 44.6016C267.33 44.6016 268.274 44.276 269.172 43.625C269.836 43.1302 270.272 42.5247 270.481 41.8086C270.624 41.3398 270.695 40.4479 270.695 39.1328V38.0391ZM291.028 27.2578V31.6328H287.278V39.9922C287.278 41.6849 287.31 42.6745 287.375 42.9609C287.453 43.2344 287.616 43.4622 287.863 43.6445C288.124 43.8268 288.436 43.918 288.801 43.918C289.309 43.918 290.044 43.7422 291.008 43.3906L291.477 47.6484C290.201 48.1953 288.755 48.4688 287.141 48.4688C286.151 48.4688 285.259 48.306 284.465 47.9805C283.671 47.6419 283.085 47.2122 282.707 46.6914C282.343 46.1576 282.089 45.4414 281.945 44.543C281.828 43.9049 281.77 42.6159 281.77 40.6758V31.6328H279.25V27.2578H281.77V23.1367L287.278 19.9336V27.2578H291.028ZM294.836 24.4453V19.3672H300.324V24.4453H294.836ZM294.836 48V27.2578H300.324V48H294.836Z" fill="#FF8700"/>
</svg>
